<svg xmlns="http://www.w3.org/2000/svg" viewBox="0 0 64 64" role="img" aria-label="KnowledgeBase AI favicon">
  <rect x="4" y="4" width="56" height="56" rx="14" fill="#F8FAFC" stroke="#CBD5E1" stroke-width="2"/>

  <path d="M20 34c-3.3 0-6-2.7-6-6 0-2.7 1.8-5 4.3-5.7.6-3.6 3.7-6.3 7.5-6.3 3 0 5.7 1.7 7 4.3.9-.6 1.9-.9 3-.9 3.1 0 5.7 2.4 6 5.5 2.3.7 4 2.9 4 5.5 0 3.3-2.7 6-6 6H20z" fill="#2563EB"/>
  <path d="M25 22v6M32 20v8M39 22v6" stroke="#DBEAFE" stroke-width="2" stroke-linecap="round"/>

  <path d="M14 42.5c6.5-4.5 12.5-4.5 18 0v11.5c-5.5-4.5-11.5-4.5-18 0V42.5z" fill="#DBEAFE" stroke="#1D4ED8" stroke-width="1.5" stroke-linejoin="round"/>
  <path d="M50 42.5c-6.5-4.5-12.5-4.5-18 0v11.5c5.5-4.5 11.5-4.5 18 0V42.5z" fill="#BFDBFE" stroke="#1D4ED8" stroke-width="1.5" stroke-linejoin="round"/>
  <path d="M32 42v12" stroke="#1D4ED8" stroke-width="1.5" stroke-linecap="round"/>
</svg>
